<?xml version="1.0" standalone="no"?>
<!DOCTYPE svg PUBLIC "-//W3C//DTD SVG 20010904//EN"
 "http://www.w3.org/TR/2001/REC-SVG-20010904/DTD/svg10.dtd">
<svg version="1.0" xmlns="http://www.w3.org/2000/svg"
 width="512.000000pt" height="512.000000pt" viewBox="0 0 512.000000 512.000000"
 preserveAspectRatio="xMidYMid meet">

<g transform="translate(0.000000,512.000000) scale(0.100000,-0.100000)"
fill="#000000" stroke="none">
<path d="M350 4301 c-114 -36 -212 -122 -273 -238 -75 -144 -72 -97 -72 -1053
0 -937 -2 -903 61 -1036 55 -117 148 -207 265 -256 51 -21 71 -23 364 -28
l310 -5 3 -33 c2 -18 -22 -167 -52 -331 -31 -164 -56 -314 -56 -332 0 -34 26
-99 52 -130 49 -60 157 -78 219 -36 19 12 170 175 336 362 379 426 399 446
459 476 l49 24 588 3 587 3 0 217 0 218 -51 13 c-86 22 -149 103 -149 191 0
14 23 119 50 235 51 213 67 250 125 305 23 21 25 31 25 110 l0 87 -52 -26
c-47 -23 -65 -26 -163 -26 -104 0 -114 2 -177 33 -79 39 -149 111 -187 192
-36 77 -42 220 -13 302 42 120 132 208 252 248 89 30 200 25 283 -13 l57 -26
0 285 0 284 -1392 -1 c-1304 0 -1397 -1 -1448 -18z m696 -515 c117 -54 177
-211 120 -315 -12 -22 -10 -28 19 -67 44 -57 58 -104 53 -174 -6 -77 -46 -144
-112 -185 l-49 -30 -190 -3 c-184 -3 -190 -3 -213 19 l-24 22 0 354 0 354 25
24 c23 24 28 25 172 25 134 0 153 -2 199 -24z m405 -5 l29 -29 0 -285 0 -285
134 -4 c126 -3 136 -4 160 -27 33 -31 35 -85 4 -118 -21 -23 -25 -23 -224 -23
l-203 0 -20 26 c-20 26 -21 38 -21 376 l0 349 25 24 c34 35 78 33 116 -4z
m822 -4 c31 -14 81 -49 110 -76 203 -192 153 -523 -97 -654 -58 -30 -67 -32
-171 -32 -99 0 -116 3 -168 27 -73 35 -155 116 -193 193 -27 55 -29 69 -29
170 0 103 2 114 32 177 50 105 131 176 248 215 64 21 198 11 268 -20z m702
-1012 c36 -35 35 -96 -1 -124 -27 -21 -29 -21 -1151 -21 l-1124 0 -24 25 c-40
40 -30 116 18 135 12 5 521 9 1140 9 l1118 1 24 -25z m-114 -438 c46 -35 50
-88 10 -128 l-29 -29 -1062 0 c-1128 0 -1106 -1 -1124 45 -13 35 -6 76 19 100
l24 25 1073 0 c828 -1 1077 -3 1089 -13z"/>
<path d="M820 3565 l0 -75 65 0 c75 0 108 13 124 47 16 36 14 51 -14 78 -21
22 -33 25 -100 25 l-75 0 0 -75z"/>
<path d="M820 3250 l0 -70 105 0 c118 0 145 13 145 70 0 57 -27 70 -145 70
l-105 0 0 -70z"/>
<path d="M2025 3621 c-109 -50 -160 -170 -124 -292 27 -88 113 -149 210 -149
173 1 279 182 199 340 -51 101 -184 148 -285 101z"/>
<path d="M2896 3626 c-21 -8 -56 -32 -77 -52 -111 -109 -85 -295 51 -367 47
-25 64 -28 117 -25 49 3 72 10 105 34 40 28 88 86 88 105 0 5 -36 9 -79 9 -70
0 -83 3 -107 24 -37 31 -38 84 -4 121 22 23 30 25 112 25 85 0 88 1 88 23 0
14 -11 27 -30 37 -16 8 -50 28 -76 44 -56 35 -129 43 -188 22z"/>
<path d="M3173 2375 c-7 -30 -8 -54 -2 -59 15 -16 20 0 17 55 l-3 54 -12 -50z"/>
</g>
</svg>
